<svg xmlns="http://www.w3.org/2000/svg" width="118" height="19" viewBox="0 0 118 19">
  <g fill="none" fill-rule="evenodd">
    <path fill="#2C253C" d="M43.453 8.953c.426 0 .832-.032 1.217-.095.385-.063.73-.175 1.032-.337.302-.16.543-.38.722-.66.178-.282.268-.646.268-1.095 0-.435-.09-.79-.268-1.063-.18-.274-.416-.487-.712-.642-.296-.154-.633-.255-1.01-.304-.38-.05-.768-.075-1.167-.075H42.27v4.273h1.183zm-3.783-6.5h4.134c.838 0 1.595.076 2.27.23.673.154 1.25.407 1.732.757.482.35.853.8 1.114 1.347.26.547.392 1.207.392 1.978 0 .827-.152 1.52-.453 2.082-.304.562-.714 1.014-1.23 1.357-.515.344-1.117.593-1.804.747-.69.156-1.418.232-2.188.232H42.27v6.165h-2.6V2.452zM50.24 7.268h2.474v10.07H50.24V7.268zm-.352-3.302c0-.406.148-.76.443-1.062.297-.302.672-.452 1.126-.452.454 0 .836.143 1.145.43.31.29.466.65.466 1.084 0 .435-.156.797-.465 1.084-.308.288-.69.43-1.144.43-.454 0-.83-.15-1.125-.45-.294-.303-.442-.656-.442-1.064zM55.298 7.65h2.352v1.62h.04c.22-.505.603-.95 1.146-1.337.544-.385 1.187-.578 1.93-.578.646 0 1.2.116 1.66.347.46.23.84.537 1.135.915.296.38.513.814.65 1.305.138.49.207.996.207 1.515v6.283H61.94v-5.568c0-.295-.02-.603-.06-.926-.042-.322-.132-.613-.27-.873-.136-.26-.326-.473-.566-.642-.24-.166-.56-.25-.96-.25-.4 0-.742.08-1.03.24-.29.162-.527.37-.713.622-.185.252-.326.544-.422.873-.096.33-.144.662-.144 1v5.525h-2.476V7.65zM73.068 11.69c0-.324-.045-.633-.134-.927-.09-.295-.23-.554-.423-.778-.192-.225-.436-.403-.732-.537-.296-.133-.643-.2-1.042-.2-.743 0-1.372.23-1.888.684-.515.456-.8 1.04-.856 1.757h5.076zm2.476 1.135v.336c0 .114-.008.226-.02.338H67.99c.027.365.12.698.28 1 .157.3.366.56.628.778.26.217.557.39.887.515.33.128.674.19 1.032.19.618 0 1.14-.115 1.567-.347.426-.23.777-.55 1.052-.957l1.65 1.347c-.977 1.346-2.394 2.02-4.25 2.02-.77 0-1.48-.124-2.126-.37-.647-.244-1.207-.59-1.68-1.04-.476-.45-.847-1-1.115-1.652-.27-.65-.404-1.39-.404-2.218 0-.813.135-1.553.403-2.22.267-.666.635-1.234 1.102-1.704.468-.47 1.02-.834 1.66-1.094.64-.26 1.332-.39 2.075-.39.687 0 1.323.117 1.91.348.583.23 1.088.575 1.515 1.03.426.457.76 1.025 1 1.705.24.68.362 1.476.362 2.388zM83.885 10.443c-.205-.245-.482-.516-.867-.705-.385-.19-.777-.284-1.175-.284-.455 0-.854.094-1.197.284-.345.19-.63.438-.857.747-.227.31-.396.656-.506 1.04-.11.387-.165.777-.165 1.17 0 .392.057.78.174 1.166.117.388.292.735.527 1.043.234.31.527.558.877.747.576.31 1.277.343 1.905.2.548-.126 1.014-.415 1.407-.82l1.546 1.598c-.412.45-.938.796-1.578 1.04-.64.247-1.33.37-2.074.37-.73 0-1.42-.12-2.073-.358-.653-.24-1.224-.59-1.712-1.052-.488-.463-.874-1.024-1.155-1.683-.282-.66-.423-1.41-.423-2.25 0-.814.14-1.55.423-2.21.28-.66.663-1.22 1.145-1.683.48-.463 1.042-.82 1.68-1.073.64-.254 1.325-.38 2.055-.38.728 0 1.433.14 2.114.42.68.282 1.22.667 1.62 1.158l-1.692 1.515zM93.16 13.136H92.6c-.4 0-.82.018-1.26.053-.44.033-.845.11-1.216.23-.372.12-.68.287-.93.505-.246.217-.37.515-.37.893 0 .24.05.44.155.6.104.162.238.29.403.39.165.098.35.168.557.21.206.042.412.063.62.063.852 0 1.498-.23 1.938-.693.44-.463.66-1.094.66-1.893v-.358zm.04 3.324h-.062c-.247.45-.647.817-1.196 1.105-.55.286-1.177.43-1.878.43-.4 0-.815-.052-1.248-.158-.434-.104-.833-.28-1.197-.525-.366-.246-.668-.568-.91-.968-.24-.4-.36-.894-.36-1.483 0-.756.21-1.36.63-1.808.42-.45.96-.793 1.62-1.032.66-.237 1.392-.396 2.197-.473.804-.077 1.59-.116 2.362-.116v-.25c0-.632-.225-1.098-.672-1.4-.447-.3-.98-.452-1.6-.452-.522 0-1.024.112-1.505.336-.48.225-.88.498-1.197.82l-1.28-1.535c.565-.534 1.215-.934 1.95-1.2.736-.266 1.483-.4 2.24-.4.88 0 1.605.126 2.176.38.57.25 1.02.58 1.352.987.33.407.56.863.69 1.368.13.505.197 1.01.197 1.515v6.138H93.2V16.46zM103.172 10.338c-.22-.295-.523-.55-.908-.768-.385-.218-.804-.326-1.258-.326-.4 0-.763.084-1.093.252-.33.168-.496.45-.496.842 0 .393.182.67.547.83.364.162.898.326 1.6.495.37.084.744.197 1.123.337.378.14.723.326 1.032.557.31.232.56.52.752.863.193.343.29.76.29 1.252 0 .617-.115 1.14-.34 1.567-.23.427-.53.774-.91 1.04-.378.267-.818.46-1.32.58-.502.118-1.02.178-1.558.178-.77 0-1.52-.144-2.248-.432-.73-.287-1.335-.697-1.816-1.23l1.63-1.557c.275.364.632.665 1.072.903.44.24.93.358 1.465.358.18 0 .362-.02.547-.062.186-.042.358-.108.516-.2.158-.09.285-.214.382-.368.096-.154.144-.343.144-.568 0-.42-.19-.722-.567-.905-.38-.182-.947-.364-1.703-.547-.372-.084-.733-.192-1.084-.325-.35-.133-.664-.31-.938-.526-.275-.22-.495-.49-.66-.812-.165-.323-.248-.722-.248-1.2 0-.56.113-1.043.34-1.45.227-.407.526-.74.898-1 .37-.26.79-.452 1.258-.58.468-.125.95-.188 1.444-.188.715 0 1.414.126 2.095.38.68.25 1.22.637 1.62 1.156l-1.61 1.452zM105.59 9.234v-2.02h1.733V4.29h2.435v2.925h2.476l-.43 2.02h-2.046v4.69c0 .45.08.82.237 1.116.158.296.512.443 1.063.443.165 0 .343-.018.536-.053.192-.035.364-.087.516-.158l.082 1.978c-.22.084-.48.15-.784.2-.303.05-.59.074-.866.074-.66 0-1.197-.095-1.61-.285-.412-.19-.74-.45-.98-.78-.24-.328-.406-.707-.494-1.135-.09-.427-.135-.887-.135-1.377V9.234h-1.733z"/>
    <path fill="#56D3C9" d="M7.03 16.09H24.85c.74-2.053.78-4.298.1-6.39-.798-2.454-2.485-4.443-4.752-5.603-2.266-1.16-4.84-1.35-7.245-.535-4.967 1.68-7.668 7.167-6.02 12.233.032.1.065.197.1.295m23.595 2.452H6.245c-.425 0-.818-.23-1.034-.6l-.07-.122c-.024-.042-.045-.083-.064-.127-.16-.367-.305-.746-.428-1.126-2.065-6.35 1.32-13.227 7.545-15.333 3.016-1.02 6.242-.78 9.08.672 2.842 1.453 4.956 3.947 5.957 7.022.76 2.337.804 4.826.146 7.162h3.25c.663 0 1.2.55 1.2 1.226 0 .676-.537 1.226-1.2 1.226"/>
    <path fill="#56D3C9" d="M17.14 12.893c0 .677-.537 1.225-1.2 1.225-.665 0-1.203-.548-1.203-1.225 0-.678.538-1.226 1.202-1.226.663 0 1.2.548 1.2 1.226"/>
    <path fill="#56D3C9" d="M9.88 14.118c-.658 0-1.195-.54-1.2-1.215-.012-1.302.316-2.59.95-3.73.96-1.73 2.526-2.976 4.407-3.508 1.88-.53 3.852-.283 5.55.698.824.475 1.537 1.097 2.123 1.85.412.53.325 1.3-.195 1.72-.52.422-1.276.333-1.69-.197-.39-.503-.87-.92-1.423-1.24-1.14-.657-2.46-.824-3.724-.468-1.262.357-2.312 1.193-2.957 2.354-.424.764-.644 1.63-.637 2.5.006.677-.528 1.23-1.192 1.236h-.01zM1.202 18.602C.54 18.602 0 18.052 0 17.376c0-.677.54-1.226 1.202-1.226h1.503c.663 0 1.202.55 1.202 1.226 0 .676-.54 1.226-1.202 1.226H1.202z"/>
    <path fill="#2C253C" d="M114.496 16.443H114V16h1.488v.443h-.496V18h-.496v-1.557zM115.97 16h.514l.294.83.103.327h.013l.104-.326.282-.83h.512v2h-.46v-.59c0-.052.002-.108.006-.17l.016-.19.02-.188.02-.167h-.01l-.157.468-.26.674h-.184l-.26-.674-.15-.468h-.01l.02.167.02.19.016.188c.003.062.006.118.006.17V18h-.456v-2z"/>
  </g>
</svg>
